<svg width="128" height="128" viewBox="0 0 128 128" fill="none" xmlns="http://www.w3.org/2000/svg">
<rect width="128" height="128" rx="40" fill="url(#paint0_linear_513_55)"/>
<path d="M97.3333 60.9333V64C97.3292 71.1881 95.0016 78.1822 90.6977 83.9394C86.3939 89.6966 80.3442 93.9083 73.4512 95.9463C66.5581 97.9844 59.1908 97.7397 52.4482 95.2486C45.7056 92.7576 39.9488 88.1537 36.0365 82.1236C32.1242 76.0934 30.2659 68.9602 30.7389 61.7877C31.2118 54.6152 33.9906 47.7878 38.6609 42.3236C43.3311 36.8594 49.6426 33.0513 56.6539 31.4671C63.6653 29.883 71.0009 30.6078 77.5666 33.5333" stroke="#FAFAFA" stroke-width="8" stroke-linecap="round" stroke-linejoin="round"/>
<path d="M97.3333 37.3333L64 70.7L54 60.7" stroke="#FAFAFA" stroke-width="8" stroke-linecap="round" stroke-linejoin="round"/>
<defs>
<linearGradient id="paint0_linear_513_55" x1="0" y1="128" x2="128" y2="0" gradientUnits="userSpaceOnUse">
<stop stop-color="#1D4ED8"/>
<stop offset="1" stop-color="#3B82F6"/>
</linearGradient>
</defs>
</svg>
